<?xml version="1.0" encoding="utf-8"?>
<!-- Generator: Adobe Illustrator 24.3.0, SVG Export Plug-In . SVG Version: 6.00 Build 0)  -->
<svg version="1.1" id="Layer_1" xmlns="http://www.w3.org/2000/svg" xmlns:xlink="http://www.w3.org/1999/xlink" x="0px" y="0px"
	 viewBox="0 0 2017.7 849.2" style="enable-background:new 0 0 2017.7 849.2;" xml:space="preserve">
<style type="text/css">
	.st0{fill:#957291;}
	.st1{fill:#FFFFFF;}
	.st2{fill:#707070;}
	.st3{fill:#484848;}
	.st4{enable-background:new    ;}
	.st5{fill:#55375F;}
</style>
<g id="Group_3" transform="translate(6081.854 -936.41)">
	<path id="Path_13" class="st0" d="M-5040.2,976.7h133.3v451.9h-145v-280l11.7-59.6V976.7z"/>
	<path id="Path_14" class="st0" d="M-4887.5,976.7h145.1v453.1h-145.1V976.7z"/>
	<path id="Path_15" class="st0" d="M-5046.8,1450.2l8.2,149.3h274.9l23-7.9v-141.3L-5046.8,1450.2L-5046.8,1450.2z"/>
	<path id="Path_16" class="st0" d="M-4716.6,1587.8v-612l319.2-10.9l7.1,622.9H-4716.6z"/>
	<path id="Path_17" class="st0" d="M-4368.5,1587.8l304.4-5.4v-646l-304.4,25.9V1587.8z"/>
	<path id="Path_18" class="st0" d="M-5091.9,976.7h-138.7v446.7h157.1v-273l-18.3-62.4L-5091.9,976.7z"/>
	<path id="Path_19" class="st0" d="M-5391.3,976.7h141v469.4h164.8v153.3h-305.7L-5391.3,976.7L-5391.3,976.7z"/>
	<path id="Path_20" class="st0" d="M-5434.4,1450.2h-304.7v150.4h309.7L-5434.4,1450.2z"/>
	<path id="Path_21" class="st0" d="M-5761.1,1450.2h-319.7V1601h319.7V1450.2z"/>
	<path id="Path_22" class="st0" d="M-5565.7,1429.8h134.1l4.9-454.8h-139.1L-5565.7,1429.8z"/>
	<path id="Path_23" class="st0" d="M-5584.3,1428.6h-152.6V974.2h152.6V1428.6z"/>
	<path id="Path_24" class="st0" d="M-5761.1,1429.8h-146V975.5h146.1L-5761.1,1429.8z"/>
	<path id="Path_25" class="st0" d="M-5927.6,1428.6V975.1h-153.3v453.4L-5927.6,1428.6L-5927.6,1428.6z"/>
	<path id="Path_26" class="st0" d="M-4064.1,1789.6v-135.3h-303.5v135.3H-4064.1z"/>
	<path id="Path_27" class="st0" d="M-4390.3,1654.3H-4718v135h327.7V1654.3z"/>
	<path id="Path_28" class="st0" d="M-5035.2,1645.2h271.6l21.9,11.6V1786h-304.7L-5035.2,1645.2z"/>
	<path id="Path_29" class="st0" d="M-5085.5,1645.2l10.3,140.4H-5396v-140.4H-5085.5z"/>
	<path id="Path_30" class="st0" d="M-5429.4,1645.2h-311.2l10.9,146.5h300.3L-5429.4,1645.2z"/>
	<path id="Path_31_2_" class="st0" d="M-6082,1645.2h320.9l9.5,147.5h-143H-6082V1645.2z"/>
</g>
<g id="Group_1" transform="translate(-170 -588)">
	<circle id="Ellipse_40" class="st1" cx="1274" cy="980" r="14"/>
	<path id="Ellipse_40_-_Outline" class="st2" d="M1274,967c-7.2,0-13,5.8-13,13c0,3.4,1.4,6.8,3.8,9.2c5.1,5,13.4,5,18.4-0.2
		c5-5.1,5-13.2,0-18.2C1280.8,968.3,1277.5,967,1274,967 M1274,966c7.7,0,14,6.3,14,14s-6.3,14-14,14s-14-6.3-14-14
		S1266.3,966,1274,966z"/>
	<ellipse id="Ellipse_42" class="st1" cx="1274" cy="937.5" rx="14" ry="19.5"/>
	<ellipse id="Ellipse_43" class="st1" cx="1294" cy="928.5" rx="14" ry="17.5"/>
	<ellipse id="Ellipse_46" class="st1" cx="1254" cy="928.5" rx="14" ry="17.5"/>
	<ellipse id="Ellipse_44" class="st1" cx="1308" cy="894.5" rx="14" ry="37.5"/>
	<ellipse id="Ellipse_45" class="st1" cx="1240" cy="894.5" rx="14" ry="37.5"/>
	<circle id="Ellipse_41" class="st1" cx="1274" cy="884" r="48"/>
	<ellipse id="Ellipse_47" class="st3" cx="1260" cy="874.5" rx="5" ry="9.5"/>
	<ellipse id="Ellipse_48" class="st3" cx="1288" cy="874.5" rx="5" ry="9.5"/>
</g>
<g class="st4">
	<path class="st5" d="M1199.3,687.3c0,5-2.9,8-7.6,8c-5,0-7.5-3-6.6-7.8l2.5-0.5c-0.5,3.8,0.6,5.7,4,5.7c3.8,0,5-2.1,5-6.2v-14.1
		h2.7V687.3z"/>
	<path class="st5" d="M1220.6,692.8l-0.2,2.1c-0.5,0.2-1.2,0.3-2,0.3c-1.7,0-2.8-0.6-3.1-2.5c-1.1,1.6-3.3,2.5-5.5,2.5
		c-3.2,0-5.8-1.5-5.8-4.6c0-2.5,2.2-4.6,6.6-5.3l4.5-0.7v-1c0-2.2-1.4-3.7-4-3.7c-2.2,0-3.9,1.1-4.9,3.2l-2-1.5
		c0.9-2.5,3.6-4.1,6.9-4.1c3.9,0,6.7,1.8,6.7,5.8v8.4c0,0.8,0.3,1.2,1.3,1.2C1219.7,693,1220.2,692.9,1220.6,692.8z M1215.2,689.3
		v-2.3l-3.8,0.7c-3,0.5-4.5,1.5-4.5,3.1c0,1.4,1.2,2.2,3.1,2.2C1212.7,692.9,1215.2,691.5,1215.2,689.3z"/>
	<path class="st5" d="M1223,691.5l2.2-1.5c0.8,2.1,2.9,3,5.4,3c2.8,0,4.1-1.1,4.1-2.5c0-1.3-1.1-2-4.5-2.6c-4.8-0.9-6.6-2.2-6.6-5.1
		c0-2.8,2.5-5.1,6.7-5.1c3.6,0,5.8,1.3,6.7,4.1l-2.3,1.4c-0.7-2.2-2.3-3.1-4.4-3.1c-2.3,0-4,1.2-4,2.5c0,1.5,1.1,2.2,4.6,2.8
		c4.8,0.8,6.5,2.2,6.5,5c0,3-2.8,5-7.1,5C1227.2,695.3,1224.3,694.1,1223,691.5z"/>
	<path class="st5" d="M1258.6,686.5c0,5.5-3,8.8-7.8,8.8c-2.5,0-4.6-1.2-5.6-3v9.8h-2.7V678h2.4l0.2,3c1-1.9,3.1-3.3,5.8-3.3
		C1255.6,677.6,1258.6,680.9,1258.6,686.5z M1255.9,686.5c0-3.9-2-6.5-5.3-6.5c-3.2,0-5.3,2.4-5.3,6.3v0.4c0,3.8,2.1,6.3,5.3,6.3
		C1253.9,692.9,1255.9,690.4,1255.9,686.5z"/>
	<path class="st5" d="M1278.4,687.5h-12.8c0.3,3.4,2.4,5.4,5.5,5.4c2.5,0,4.2-0.9,4.8-2.5l2.3,1.2c-1.3,2.3-3.4,3.7-7.1,3.7
		c-5.1,0-8.2-3.3-8.2-8.8s2.9-8.8,8-8.8c4.9,0,7.6,3.6,7.6,8C1278.5,686.4,1278.4,687,1278.4,687.5z M1265.6,685.1h10.3
		c-0.4-3.1-2.1-5.1-5-5.1C1267.8,680,1266,681.9,1265.6,685.1z"/>
	<path class="st5" d="M1293.5,678l-0.5,2.7c-0.5-0.3-1.3-0.4-2.1-0.4c-2,0-4.5,1.8-4.5,5.6v9.2h-2.7v-17h2.2l0.4,2.8
		c1-2.1,2.8-3.1,5.4-3.1C1292.3,677.6,1293,677.7,1293.5,678z"/>
	<path class="st5" d="M1320.1,688.8h-10.2l-2.4,6.2h-2.9l8.7-22.4h3.2l8.7,22.4h-2.9L1320.1,688.8z M1319.1,686.2l-3-8l-1.1-3.1
		h-0.1l-1,3l-3.1,8.1H1319.1z"/>
	<path class="st5" d="M1342.4,678l-7.1,17h-2.7l-7.1-17h3.1l5.4,14.2l5.5-14.2H1342.4z"/>
	<path class="st5" d="M1360.4,687.5h-12.8c0.3,3.4,2.4,5.4,5.5,5.4c2.5,0,4.2-0.9,4.8-2.5l2.3,1.2c-1.3,2.3-3.4,3.7-7.1,3.7
		c-5.1,0-8.2-3.3-8.2-8.8s2.9-8.8,8-8.8c4.9,0,7.6,3.6,7.6,8C1360.6,686.4,1360.5,687,1360.4,687.5z M1347.6,685.1h10.3
		c-0.4-3.1-2.1-5.1-5-5.1C1349.9,680,1348.1,681.9,1347.6,685.1z"/>
</g>
<g class="st4">
	<path class="st1" d="M953.6,825.3H976v2.7h-16.5c-0.7,0-1.7,0-2.6-0.1c1.5,1.6,2.7,3.7,3.2,5.8l-2.5,0.7c-0.2-1.6-2.3-5.5-4-6.8
		V825.3z"/>
	<path class="st1" d="M964.8,819.6c-7.5,0-11.6-2.9-11.6-8.4s4-8.4,11.6-8.4c7.5,0,11.6,2.9,11.6,8.4S972.3,819.6,964.8,819.6z
		 M964.8,805.7c-5.9,0-9.1,1.9-9.1,5.5s3.2,5.5,9.1,5.5c5.9,0,9.1-1.9,9.1-5.5S970.7,805.7,964.8,805.7z"/>
	<path class="st1" d="M970.2,781.5v4h5.9v2.7h-5.9v10.9h-2l-14.6-10.2v-3.4h14.2v-4H970.2z M967.8,796.3v-8.1h-8.4l-3.6-0.1v0.1
		c1.1,0.5,2.7,1.5,3.7,2.2L967.8,796.3z"/>
	<path class="st1" d="M958,748.7l1.9,2.3c-3,1.4-4.1,3-4.1,6.3c0,3.6,1.7,5.5,3.8,5.5c2.1,0,3.2-1.5,4-6.2c1-6,2.9-8.2,6.4-8.2
		c3.8,0,6.4,3.4,6.4,8.7c0,4.8-2.1,7.9-4.9,9.5l-1.9-2.3c2.6-1.2,4.2-3.5,4.2-7.2c0-3.5-1.3-5.8-3.7-5.8c-1.9,0-3.1,1.5-3.9,6.2
		c-1.1,6.1-2.9,8.2-6.3,8.2c-3.6,0-6.7-3.2-6.7-8.4C953.3,753.3,954.9,750.5,958,748.7z"/>
	<path class="st1" d="M974.9,732.9c1,1.1,1.5,2.5,1.5,4.4c0,2.5-1.3,4.7-4.6,4.7h-10.4v3.4h-2.3V742H955l-0.7-2.7h4.8V733h2.3v6.3
		h10c1.7,0,2.5-1.1,2.5-2.5c0-1.2-0.5-2.1-1.3-2.9L974.9,732.9z"/>
</g>
<g class="st4">
	<path class="st1" d="M1298.6,824.5h22.4v2.7h-16.5c-0.7,0-1.7,0-2.6-0.1c1.5,1.6,2.7,3.7,3.2,5.8l-2.5,0.7c-0.2-1.6-2.3-5.5-4-6.8
		V824.5z"/>
	<path class="st1" d="M1309.8,818.8c-7.5,0-11.6-2.9-11.6-8.4s4-8.4,11.6-8.4c7.5,0,11.6,2.9,11.6,8.4S1317.3,818.8,1309.8,818.8z
		 M1309.8,804.9c-5.9,0-9.1,1.9-9.1,5.5s3.2,5.5,9.1,5.5c5.9,0,9.1-1.9,9.1-5.5S1315.7,804.9,1309.8,804.9z"/>
	<path class="st1" d="M1304.1,783.6c3.2,0,5.5,2,5.5,4.2h0.1c0-3,2.4-4.7,5.3-4.7c3.6,0,6.4,3.1,6.4,7.9c0,3.8-1.9,6.4-5.4,7.8
		l-1.3-2.5c2.5-0.8,4.1-2.1,4.1-5.4c0-3.2-1.8-4.9-4.1-4.9c-2.8,0-3.7,1.7-3.7,5.2v0.9h-2.5v-0.9c0-3-1.2-4.6-3.7-4.7
		c-2.6,0-3.9,1.5-3.9,4.1c0,2.7,1.4,4.2,3.4,4.8l-1.2,2.5c-2.9-1.1-4.8-3.8-4.8-7.3C1298.3,786,1301,783.6,1304.1,783.6z"/>
	<path class="st1" d="M1303,749.6l1.9,2.3c-3,1.4-4.1,3-4.1,6.3c0,3.6,1.7,5.5,3.8,5.5c2.1,0,3.2-1.5,4-6.2c1-6,2.9-8.2,6.4-8.2
		c3.8,0,6.4,3.4,6.4,8.7c0,4.8-2.1,7.9-4.9,9.5l-1.9-2.3c2.6-1.2,4.2-3.5,4.2-7.2c0-3.5-1.3-5.8-3.7-5.8c-1.9,0-3.1,1.5-3.9,6.2
		c-1.1,6.1-2.9,8.2-6.3,8.2c-3.6,0-6.7-3.2-6.7-8.4C1298.3,754.1,1299.9,751.3,1303,749.6z"/>
	<path class="st1" d="M1319.9,733.7c1,1.1,1.5,2.5,1.5,4.4c0,2.5-1.3,4.7-4.6,4.7h-10.4v3.4h-2.3v-3.4h-4.1l-0.7-2.7h4.8v-6.3h2.3
		v6.3h10c1.7,0,2.5-1.1,2.5-2.6c0-1.2-0.5-2.1-1.3-2.9L1319.9,733.7z"/>
</g>
<g class="st4">
	<path class="st1" d="M1648.6,826.8h22.4v2.7h-16.5c-0.7,0-1.7,0-2.6-0.1c1.5,1.6,2.7,3.7,3.2,5.8l-2.5,0.7c-0.2-1.6-2.3-5.5-4-6.8
		V826.8z"/>
	<path class="st1" d="M1659.8,821.1c-7.5,0-11.6-2.9-11.6-8.4s4-8.4,11.6-8.4c7.5,0,11.6,2.9,11.6,8.4S1667.3,821.1,1659.8,821.1z
		 M1659.8,807.2c-5.9,0-9.1,1.9-9.1,5.5s3.2,5.5,9.1,5.5c5.9,0,9.1-1.9,9.1-5.5S1665.7,807.2,1659.8,807.2z"/>
	<path class="st1" d="M1668.8,799.7c-6.6-9-9.6-11.8-13.5-11.8c-2.7,0-4.5,1.8-4.5,4.8c0,3.1,2.2,5,5.5,5.3l-1.4,2.4
		c-3.9-0.6-6.7-3.3-6.7-7.8c0-4.6,2.9-7.5,7-7.5c4.2,0,7.9,2.7,13.3,10.7h0c0-0.7-0.1-2.7-0.1-3.4v-7.9h2.5v15.1H1668.8z"/>
	<path class="st1" d="M1653,751.2l1.9,2.3c-3,1.4-4.1,3-4.1,6.3c0,3.6,1.7,5.5,3.8,5.5c2.1,0,3.2-1.5,4-6.2c1-6,2.9-8.2,6.4-8.2
		c3.8,0,6.4,3.4,6.4,8.7c0,4.8-2.1,7.9-4.9,9.5l-1.9-2.3c2.6-1.2,4.2-3.5,4.2-7.2c0-3.5-1.3-5.8-3.7-5.8c-1.9,0-3.1,1.5-3.9,6.2
		c-1.1,6.1-2.9,8.2-6.3,8.2c-3.6,0-6.7-3.2-6.7-8.4C1648.3,755.8,1649.9,752.9,1653,751.2z"/>
	<path class="st1" d="M1669.9,735.4c1,1.1,1.5,2.5,1.5,4.4c0,2.5-1.3,4.7-4.6,4.7h-10.4v3.4h-2.3v-3.4h-4.1l-0.7-2.7h4.8v-6.3h2.3
		v6.3h10c1.7,0,2.5-1.1,2.5-2.6c0-1.2-0.5-2.1-1.3-2.9L1669.9,735.4z"/>
</g>
<g class="st4">
	<path class="st1" d="M1213.6,64.5V87h-2.7V70.5c0-0.7,0-1.7,0.1-2.6c-1.6,1.5-3.7,2.7-5.8,3.2l-0.7-2.5c1.6-0.2,5.5-2.3,6.8-4
		H1213.6z"/>
	<path class="st1" d="M1219.2,75.8c0-7.5,2.9-11.6,8.4-11.6s8.4,4,8.4,11.6c0,7.5-2.9,11.6-8.4,11.6S1219.2,83.3,1219.2,75.8z
		 M1233.1,75.8c0-5.9-1.9-9.1-5.5-9.1s-5.5,3.2-5.5,9.1c0,5.9,1.9,9.1,5.5,9.1S1233.1,81.7,1233.1,75.8z"/>
	<path class="st1" d="M1240.7,84.8c9-6.6,11.8-9.6,11.8-13.5c0-2.7-1.8-4.5-4.8-4.5c-3.1,0-5,2.2-5.3,5.5l-2.4-1.4
		c0.6-3.9,3.3-6.7,7.8-6.7c4.6,0,7.5,2.9,7.5,7c0,4.2-2.7,7.9-10.7,13.3v0c0.7,0,2.7-0.1,3.4-0.1h7.9V87h-15.1V84.8z"/>
	<path class="st1" d="M1284.5,80.8h-10.2L1272,87h-2.9l8.7-22.4h3.2l8.7,22.4h-2.9L1284.5,80.8z M1283.5,78.2l-3-8l-1.1-3.1h-0.1
		l-1,3l-3.1,8.1H1283.5z"/>
	<path class="st1" d="M1306.8,70l-7.1,17h-2.7l-7.1-17h3.1l5.4,14.2L1304,70H1306.8z"/>
	<path class="st1" d="M1324.8,79.5H1312c0.3,3.4,2.4,5.4,5.5,5.4c2.5,0,4.2-0.9,4.8-2.5l2.3,1.2c-1.3,2.3-3.4,3.7-7.1,3.7
		c-5.1,0-8.2-3.3-8.2-8.8c0-5.5,2.9-8.8,8-8.8c4.9,0,7.6,3.6,7.6,8C1325,78.4,1324.9,79,1324.8,79.5z M1312.1,77.1h10.3
		c-0.4-3.1-2.1-5.1-5-5.1C1314.3,72,1312.5,73.9,1312.1,77.1z"/>
</g>
<g class="st4">
	<path class="st1" d="M600.6,826.8H623v2.7h-16.5c-0.7,0-1.7,0-2.6-0.1c1.5,1.6,2.7,3.7,3.2,5.8l-2.5,0.7c-0.2-1.6-2.3-5.5-4-6.8
		V826.8z"/>
	<path class="st1" d="M611.8,821.1c-7.5,0-11.6-2.9-11.6-8.4s4-8.4,11.6-8.4c7.5,0,11.6,2.9,11.6,8.4S619.3,821.1,611.8,821.1z
		 M611.8,807.2c-5.9,0-9.1,1.9-9.1,5.5c0,3.6,3.2,5.5,9.1,5.5c5.9,0,9.1-1.9,9.1-5.5C620.9,809.1,617.7,807.2,611.8,807.2z"/>
	<path class="st1" d="M615.9,784.5c4.7,0,7.5,2.9,7.5,7.7c0,4.2-1.9,6.5-5.1,7.8l-1.4-2.7c2.4-0.7,4-1.9,4-5.1c0-3.1-1.8-5-4.8-5
		c-3.2,0-4.8,1.7-4.8,4.8c0,2.2,0.6,3.9,2.2,5v2.4l-12.8-1.4v-12.6h2.5v10.3l7.1,0.9l0.3,0v0c-1.1-1.1-1.9-2.8-1.9-5.1
		C608.7,787.3,611.6,784.5,615.9,784.5z"/>
	<path class="st1" d="M605,751.2l1.9,2.3c-3,1.4-4.1,3-4.1,6.3c0,3.6,1.7,5.5,3.8,5.5c2.1,0,3.2-1.5,4-6.2c1-6,2.9-8.2,6.4-8.2
		c3.8,0,6.4,3.4,6.4,8.7c0,4.8-2.1,7.9-4.9,9.5l-1.9-2.3c2.6-1.2,4.2-3.5,4.2-7.2c0-3.5-1.3-5.8-3.7-5.8c-1.9,0-3.1,1.5-3.9,6.2
		c-1.1,6.1-2.9,8.2-6.3,8.2c-3.6,0-6.7-3.2-6.7-8.4C600.3,755.8,601.9,753,605,751.2z"/>
	<path class="st1" d="M621.9,735.4c1,1.1,1.5,2.5,1.5,4.4c0,2.5-1.3,4.7-4.6,4.7h-10.4v3.4h-2.3v-3.4H602l-0.7-2.7h4.8v-6.3h2.3v6.3
		h10c1.7,0,2.5-1.1,2.5-2.6c0-1.2-0.5-2.1-1.3-2.9L621.9,735.4z"/>
</g>
<g class="st4">
	<path class="st1" d="M272.6,827.4H295v2.7h-16.5c-0.7,0-1.7,0-2.6-0.1c1.5,1.6,2.7,3.7,3.2,5.8l-2.5,0.7c-0.2-1.6-2.3-5.5-4-6.8
		V827.4z"/>
	<path class="st1" d="M283.8,821.7c-7.5,0-11.6-2.9-11.6-8.4s4-8.4,11.6-8.4c7.5,0,11.6,2.9,11.6,8.4S291.3,821.7,283.8,821.7z
		 M283.8,807.8c-5.9,0-9.1,1.9-9.1,5.5s3.2,5.5,9.1,5.5c5.9,0,9.1-1.9,9.1-5.5S289.7,807.8,283.8,807.8z"/>
	<path class="st1" d="M277,784.4l1.2,2.5c-2.1,0.7-3.4,2.1-3.4,4.8c0,3.6,4.2,6.1,9.5,6.1h0.6v-0.1c-2.9-0.7-4.1-3.7-4.1-6.2
		c0-4.6,2.8-7.5,7.3-7.5c4.5,0,7.3,3,7.3,7.7c0,5.6-4.9,8.7-11.6,8.7c-7.5,0-11.6-3.8-11.6-8.8C272.3,788,273.7,785.8,277,784.4z
		 M288.1,796.6c2.8,0,4.7-2,4.7-4.9c0-3.1-1.7-4.9-4.7-4.9c-2.9,0-4.6,1.8-4.6,4.9C283.5,794.6,285.4,796.6,288.1,796.6z"/>
	<path class="st1" d="M277,750.6l1.9,2.3c-3,1.4-4.1,3-4.1,6.3c0,3.6,1.7,5.5,3.8,5.5c2.1,0,3.2-1.5,4-6.2c1-6,2.9-8.2,6.4-8.2
		c3.8,0,6.4,3.4,6.4,8.7c0,4.8-2.1,7.9-4.9,9.5l-1.9-2.3c2.6-1.2,4.2-3.5,4.2-7.2c0-3.5-1.3-5.8-3.7-5.8c-1.9,0-3.1,1.5-3.9,6.2
		c-1.1,6.1-2.9,8.2-6.3,8.2c-3.6,0-6.7-3.2-6.7-8.4C272.3,755.2,273.9,752.4,277,750.6z"/>
	<path class="st1" d="M293.9,734.8c1,1.1,1.5,2.5,1.5,4.4c0,2.5-1.3,4.7-4.6,4.7h-10.4v3.4h-2.3v-3.4H274l-0.7-2.7h4.8v-6.3h2.3v6.3
		h10c1.7,0,2.5-1.1,2.5-2.5c0-1.2-0.5-2.1-1.3-2.9L293.9,734.8z"/>
</g>
</svg>
